<?xml version="1.0"?>
<svg xmlns="http://www.w3.org/2000/svg" xmlns:xlink="http://www.w3.org/1999/xlink" xmlns:svgjs="http://svgjs.com/svgjs" version="1.1" width="512" height="512" x="0" y="0" viewBox="0 0 512 512" style="enable-background:new 0 0 512 512" xml:space="preserve"><g><linearGradient xmlns="http://www.w3.org/2000/svg" id="SVGID_1_" gradientUnits="userSpaceOnUse" x1="205.894" x2="205.894" y1="481.149" y2="0"><stop offset="0" stop-color="#c3ffe8"/><stop offset=".9973" stop-color="#f0fff4"/></linearGradient><linearGradient xmlns="http://www.w3.org/2000/svg" id="SVGID_2_" gradientUnits="userSpaceOnUse" x1="256" x2="256" y1="512" y2="0"><stop offset="0" stop-color="#00b59c"/><stop offset="1" stop-color="#9cffac"/></linearGradient><g xmlns="http://www.w3.org/2000/svg"><g><g><path d="m409.34 77.05c-2.1-3.301-5.4-5.7-9.3-6.601l-110.7-24.901c-4.499-.899-9 .3-12.599 3.001-3.6 2.699-5.7 7.2-5.7 11.7v301.5h-216c-8.399 0-15 7.5-15 15.899 0 6.901 4.801 13.2 11.7 14.7l72.001 16.201 191.398 72.6 48.001-71.4 42.9-296.999 5.4-24.3c.9-3.9-.001-8.101-2.101-11.4zm-304.34-77.05c-3.9 0-7.8 1.5-10.499 4.499l-90 90c-3.001 2.701-4.501 6.601-4.501 10.501l136.04 30z" fill="url(#SVGID_1_)" data-original="url(#SVGID_1_)" style=""/></g></g><g><g><path d="m511.04 169.448c-1.199-3.9-3.9-6.899-7.5-8.699l-97.5-47.999-72.9 326.999c-.901 3.9-3.3 7.2-6.601 9.3-3.7 2.313-8.258 2.885-11.4 2.1l-191.398-42.6 207.299 101.999c8.79 3.77 16.777-.253 20.099-6.899l159.3-322.8c1.8-3.6 2.101-7.801.601-11.401zm-210 207.302v-361.75c0-8.401-6.599-15-15-15h-181.04v90c0 8.284-6.716 15-15 15h-90v271.75c0 8.399 6.599 15 15 15h271.04c8.401 0 15-6.602 15-15z" fill="url(#SVGID_2_)" data-original="url(#SVGID_2_)" style=""/></g></g></g></g></svg>
